<?xml version="1.0" encoding="UTF-8"?>
<svg xmlns="http://www.w3.org/2000/svg" xmlns:xlink="http://www.w3.org/1999/xlink" viewBox="0 0 100 100" width="100px" height="100px">
<g id="surface1682559">
<path style=" stroke:none;fill-rule:nonzero;fill:rgb(18.039216%,80.000001%,44.313726%);fill-opacity:1;" d="M 50 4 C 24.632812 4 4 24.632812 4 50 C 4 75.367188 24.632812 96 50 96 C 75.367188 96 96 75.367188 96 50 C 96 40.878906 93.320312 32.378906 88.726562 25.222656 L 85.988281 28.457031 C 89.777344 34.765625 92 42.121094 92 50 C 92 73.15625 73.15625 92 50 92 C 26.84375 92 8 73.15625 8 50 C 8 26.84375 26.84375 8 50 8 C 60.886719 8 70.789062 12.199219 78.257812 19.019531 L 80.875 15.929688 C 72.703125 8.519531 61.871094 4 50 4 Z M 86.472656 15.507812 L 47.828125 61.109375 L 31.5625 45.9375 L 28.835938 48.863281 L 48.167969 66.894531 L 89.527344 18.09375 Z M 86.472656 15.507812 "/>
</g>
</svg>
