<?xml version="1.0" encoding="UTF-8"?>
<svg xmlns="http://www.w3.org/2000/svg" xmlns:xlink="http://www.w3.org/1999/xlink" viewBox="0 0 100 100" width="100px" height="100px">
<g id="surface1697534">
<path style=" stroke:none;fill-rule:nonzero;fill:rgb(90.588236%,29.803923%,23.529412%);fill-opacity:1;" d="M 50 4 C 24.617188 4 4 24.617188 4 50 C 4 75.382812 24.617188 96 50 96 C 75.382812 96 96 75.382812 96 50 C 96 24.617188 75.382812 4 50 4 Z M 50 8 C 73.21875 8 92 26.78125 92 50 C 92 73.21875 73.21875 92 50 92 C 26.78125 92 8 73.21875 8 50 C 8 26.78125 26.78125 8 50 8 Z M 65.980469 31.972656 C 65.453125 31.984375 64.953125 32.207031 64.585938 32.585938 L 50 47.171875 L 35.414062 32.585938 C 35.039062 32.199219 34.519531 31.980469 33.980469 31.980469 C 33.167969 31.980469 32.433594 32.472656 32.128906 33.226562 C 31.820312 33.980469 32.003906 34.847656 32.585938 35.414062 L 47.171875 50 L 32.585938 64.585938 C 32.0625 65.085938 31.851562 65.832031 32.035156 66.535156 C 32.21875 67.234375 32.765625 67.78125 33.464844 67.964844 C 34.167969 68.148438 34.914062 67.9375 35.414062 67.414062 L 50 52.828125 L 64.585938 67.414062 C 65.085938 67.9375 65.832031 68.148438 66.535156 67.964844 C 67.234375 67.78125 67.78125 67.234375 67.964844 66.535156 C 68.148438 65.832031 67.9375 65.085938 67.414062 64.585938 L 52.828125 50 L 67.414062 35.414062 C 68.007812 34.84375 68.191406 33.964844 67.875 33.203125 C 67.558594 32.441406 66.804688 31.953125 65.980469 31.972656 Z M 65.980469 31.972656 "/>
</g>
</svg>
